# xmcd
#
# Track frame offsets:
#	150
#	14328
#	28041
#	45786
#	59943
#	74249
#	90623
#	106636
#	124726
#	142695
#
# Disc length: 2091 seconds
#
# Revision: 1
# Processed by: cddbd v1.5.1PL0 Copyright (c) Steve Scherf et al.
# Submitted via: audiograbber 1.83.01
#
DISCID=8308290a
DTITLE=Terri Clark - Pain To Kill - Aust Tour Bonus Disc
DYEAR=2003
DGENRE=Country
TTITLE0=Better things to do
TTITLE1=When boy meets girl
TTITLE2=If I were you
TTITLE3=Emotional girl
TTITLE4=Poor, poor pitiful me
TTITLE5=Now that I found you
TTITLE6=You're easy on the eyes
TTITLE7=This old heart
TTITLE8=No fear
TTITLE9=A little Gasoline
EXTD=
EXTT0=
EXTT1=
EXTT2=
EXTT3=
EXTT4=
EXTT5=
EXTT6=
EXTT7=
EXTT8=
EXTT9=
PLAYORDER=
